<?xml version="1.0" standalone="no"?>
<svg xmlns:xlink="http://www.w3.org/1999/xlink" id="wave" style="transform:rotate(0deg); transition: 0.3s" viewBox="0 0 1440 200" version="1.1" xmlns="http://www.w3.org/2000/svg"><defs><linearGradient id="sw-gradient-0" x1="0" x2="0" y1="1" y2="0"><stop stop-color="rgba(155, 137, 155, 1)" offset="0%"/><stop stop-color="rgba(95, 71, 95, 1)" offset="100%"/></linearGradient></defs><path style="transform:translate(0, 0px); opacity:1" fill="url(#sw-gradient-0)" d="M0,120L80,130C160,140,320,160,480,150C640,140,800,100,960,83.3C1120,67,1280,73,1440,66.7C1600,60,1760,40,1920,56.7C2080,73,2240,127,2400,126.7C2560,127,2720,73,2880,66.7C3040,60,3200,100,3360,113.3C3520,127,3680,113,3840,113.3C4000,113,4160,127,4320,116.7C4480,107,4640,73,4800,70C4960,67,5120,93,5280,110C5440,127,5600,133,5760,133.3C5920,133,6080,127,6240,130C6400,133,6560,147,6720,143.3C6880,140,7040,120,7200,116.7C7360,113,7520,127,7680,133.3C7840,140,8000,140,8160,116.7C8320,93,8480,47,8640,33.3C8800,20,8960,40,9120,56.7C9280,73,9440,87,9600,100C9760,113,9920,127,10080,116.7C10240,107,10400,73,10560,56.7C10720,40,10880,40,11040,46.7C11200,53,11360,67,11440,73.3L11520,80L11520,200L11440,200C11360,200,11200,200,11040,200C10880,200,10720,200,10560,200C10400,200,10240,200,10080,200C9920,200,9760,200,9600,200C9440,200,9280,200,9120,200C8960,200,8800,200,8640,200C8480,200,8320,200,8160,200C8000,200,7840,200,7680,200C7520,200,7360,200,7200,200C7040,200,6880,200,6720,200C6560,200,6400,200,6240,200C6080,200,5920,200,5760,200C5600,200,5440,200,5280,200C5120,200,4960,200,4800,200C4640,200,4480,200,4320,200C4160,200,4000,200,3840,200C3680,200,3520,200,3360,200C3200,200,3040,200,2880,200C2720,200,2560,200,2400,200C2240,200,2080,200,1920,200C1760,200,1600,200,1440,200C1280,200,1120,200,960,200C800,200,640,200,480,200C320,200,160,200,80,200L0,200Z"/></svg>